<?xml version="1.0" encoding="UTF-8" standalone="no"?>
<svg
   xmlns:osb="http://www.openswatchbook.org/uri/2009/osb"
   xmlns:dc="http://purl.org/dc/elements/1.1/"
   xmlns:cc="http://creativecommons.org/ns#"
   xmlns:rdf="http://www.w3.org/1999/02/22-rdf-syntax-ns#"
   xmlns:svg="http://www.w3.org/2000/svg"
   xmlns="http://www.w3.org/2000/svg"
   xmlns:sodipodi="http://sodipodi.sourceforge.net/DTD/sodipodi-0.dtd"
   xmlns:inkscape="http://www.inkscape.org/namespaces/inkscape"
   width="156.93103mm"
   height="78.847267mm"
   viewBox="0 0 156.93103 78.847266"
   version="1.1"
   id="svg8"
   inkscape:version="1.0.2 (e86c870879, 2021-01-15, custom)"
   sodipodi:docname="b0205r864.svg">
  <defs
     id="defs2">
    <linearGradient
       id="linearGradient848"
       osb:paint="solid">
      <stop
         style="stop-color:#f2f2f2;stop-opacity:1;"
         offset="0"
         id="stop846" />
    </linearGradient>
  </defs>
  <sodipodi:namedview
     id="base"
     pagecolor="#ffffff"
     bordercolor="#666666"
     borderopacity="1.0"
     inkscape:pageopacity="0.0"
     inkscape:pageshadow="2"
     inkscape:zoom="1.4142136"
     inkscape:cx="464.57104"
     inkscape:cy="191.47929"
     inkscape:document-units="mm"
     inkscape:current-layer="layer2"
     inkscape:document-rotation="0"
     showgrid="false"
     inkscape:window-width="1710"
     inkscape:window-height="1030"
     inkscape:window-x="88"
     inkscape:window-y="0"
     inkscape:window-maximized="0"
     fit-margin-top="8"
     fit-margin-left="8"
     fit-margin-right="8"
     fit-margin-bottom="8" />
  <metadata
     id="metadata5">
    <rdf:RDF>
      <cc:Work
         rdf:about="">
        <dc:format>image/svg+xml</dc:format>
        <dc:type
           rdf:resource="http://purl.org/dc/dcmitype/StillImage" />
        <dc:title></dc:title>
      </cc:Work>
    </rdf:RDF>
  </metadata>
  <g
     inkscape:label="Слой 1"
     inkscape:groupmode="layer"
     id="layer1"
     transform="translate(-12,-32)">
    <path
       id="path10"
       style="fill:#f2f2f2;fill-opacity:1;fill-rule:evenodd;stroke:#000000;stroke-width:0.264583;stroke-opacity:1;image-rendering:auto"
       d="M 42.867708,41.5 A 1.3677086,1.3677084 0 0 1 41.5,42.867708 1.3677086,1.3677084 0 0 1 40.132291,41.5 1.3677086,1.3677084 0 0 1 41.5,40.132291 1.3677086,1.3677084 0 0 1 42.867708,41.5 Z" />
    <rect
       style="display:none;opacity:0.278986;fill:#f2f2f2;stroke-width:0.264583"
       id="rect12"
       width="7.2162771"
       height="7.1494594"
       x="17.907059"
       y="5.1449385" />
    <path
       id="path10-1"
       style="fill:#f2f2f2;fill-opacity:1;fill-rule:evenodd;stroke:#000000;stroke-width:0.264583;stroke-opacity:1;image-rendering:auto"
       d="M 50.867708,41.5 A 1.3677086,1.3677084 0 0 1 49.5,42.867708 1.3677086,1.3677084 0 0 1 48.132291,41.5 1.3677086,1.3677084 0 0 1 49.5,40.132291 1.3677086,1.3677084 0 0 1 50.867708,41.5 Z" />
    <path
       id="path10-2"
       style="fill:#f2f2f2;fill-opacity:1;fill-rule:evenodd;stroke:#000000;stroke-width:0.264583;stroke-opacity:1;image-rendering:auto"
       d="M 58.867708,41.5 A 1.3677086,1.3677084 0 0 1 57.5,42.867708 1.3677086,1.3677084 0 0 1 56.132291,41.5 1.3677086,1.3677084 0 0 1 57.5,40.132291 1.3677086,1.3677084 0 0 1 58.867708,41.5 Z" />
    <path
       id="path10-9"
       style="fill:#f2f2f2;fill-opacity:1;fill-rule:evenodd;stroke:#000000;stroke-width:0.264583;stroke-opacity:1;image-rendering:auto"
       d="M 30.867708,49.5 A 1.3677086,1.3677084 0 0 1 29.5,50.867708 1.3677086,1.3677084 0 0 1 28.132291,49.5 1.3677086,1.3677084 0 0 1 29.5,48.132291 1.3677086,1.3677084 0 0 1 30.867708,49.5 Z" />
    <path
       id="path10-1-9"
       style="fill:#f2f2f2;fill-opacity:1;fill-rule:evenodd;stroke:#000000;stroke-width:0.264583;stroke-opacity:1;image-rendering:auto"
       d="M 38.867709,49.5 A 1.3677086,1.3677084 0 0 1 37.5,50.867708 1.3677086,1.3677084 0 0 1 36.132291,49.5 1.3677086,1.3677084 0 0 1 37.5,48.132291 1.3677086,1.3677084 0 0 1 38.867709,49.5 Z" />
    <path
       id="path10-2-5"
       style="fill:#f2f2f2;fill-opacity:1;fill-rule:evenodd;stroke:#000000;stroke-width:0.264583;stroke-opacity:1;image-rendering:auto"
       d="M 46.867709,49.5 A 1.3677086,1.3677084 0 0 1 45.500001,50.867708 1.3677086,1.3677084 0 0 1 44.132292,49.5 1.3677086,1.3677084 0 0 1 45.500001,48.132291 1.3677086,1.3677084 0 0 1 46.867709,49.5 Z" />
    <path
       id="path10-7"
       style="fill:#f2f2f2;fill-opacity:1;fill-rule:evenodd;stroke:#000000;stroke-width:0.264583;stroke-opacity:1;image-rendering:auto"
       d="M 54.867708,49.5 A 1.3677086,1.3677084 0 0 1 53.5,50.867708 1.3677086,1.3677084 0 0 1 52.132291,49.5 1.3677086,1.3677084 0 0 1 53.5,48.132291 1.3677086,1.3677084 0 0 1 54.867708,49.5 Z" />
    <path
       id="path10-1-6"
       style="fill:#f2f2f2;fill-opacity:1;fill-rule:evenodd;stroke:#000000;stroke-width:0.264583;stroke-opacity:1;image-rendering:auto"
       d="M 62.867709,49.5 A 1.3677086,1.3677084 0 0 1 61.5,50.867708 1.3677086,1.3677084 0 0 1 60.132291,49.5 1.3677086,1.3677084 0 0 1 61.5,48.132291 1.3677086,1.3677084 0 0 1 62.867709,49.5 Z" />
    <path
       id="path10-2-1"
       style="fill:#f2f2f2;fill-opacity:1;fill-rule:evenodd;stroke:#000000;stroke-width:0.264583;stroke-opacity:1;image-rendering:auto"
       d="M 70.867709,49.5 A 1.3677086,1.3677084 0 0 1 69.500001,50.867708 1.3677086,1.3677084 0 0 1 68.132292,49.5 1.3677086,1.3677084 0 0 1 69.500001,48.132291 1.3677086,1.3677084 0 0 1 70.867709,49.5 Z" />
    <path
       id="path10-9-6"
       style="fill:#f2f2f2;fill-opacity:1;fill-rule:evenodd;stroke:#000000;stroke-width:0.264583;stroke-opacity:1;image-rendering:auto"
       d="M 26.867708,57.5 A 1.3677086,1.3677084 0 0 1 25.5,58.867708 1.3677086,1.3677084 0 0 1 24.132291,57.5 1.3677086,1.3677084 0 0 1 25.5,56.132291 1.3677086,1.3677084 0 0 1 26.867708,57.5 Z" />
    <path
       id="path10-1-9-7"
       style="fill:#f2f2f2;fill-opacity:1;fill-rule:evenodd;stroke:#000000;stroke-width:0.264583;stroke-opacity:1;image-rendering:auto"
       d="M 34.867709,57.5 A 1.3677086,1.3677084 0 0 1 33.5,58.867708 1.3677086,1.3677084 0 0 1 32.132291,57.5 1.3677086,1.3677084 0 0 1 33.5,56.132291 1.3677086,1.3677084 0 0 1 34.867709,57.5 Z" />
    <path
       id="path10-2-5-6"
       style="fill:#f2f2f2;fill-opacity:1;fill-rule:evenodd;stroke:#000000;stroke-width:0.264583;stroke-opacity:1;image-rendering:auto"
       d="M 42.867709,57.5 A 1.3677086,1.3677084 0 0 1 41.500001,58.867708 1.3677086,1.3677084 0 0 1 40.132292,57.5 1.3677086,1.3677084 0 0 1 41.500001,56.132291 1.3677086,1.3677084 0 0 1 42.867709,57.5 Z" />
    <path
       id="path10-7-7"
       style="fill:#f2f2f2;fill-opacity:1;fill-rule:evenodd;stroke:#000000;stroke-width:0.264583;stroke-opacity:1;image-rendering:auto"
       d="M 50.867708,57.5 A 1.3677086,1.3677084 0 0 1 49.5,58.867708 1.3677086,1.3677084 0 0 1 48.132291,57.5 1.3677086,1.3677084 0 0 1 49.5,56.132291 1.3677086,1.3677084 0 0 1 50.867708,57.5 Z" />
    <path
       id="path10-1-6-2"
       style="fill:#f2f2f2;fill-opacity:1;fill-rule:evenodd;stroke:#000000;stroke-width:0.264583;stroke-opacity:1;image-rendering:auto"
       d="M 58.867709,57.5 A 1.3677086,1.3677084 0 0 1 57.5,58.867708 1.3677086,1.3677084 0 0 1 56.132291,57.5 1.3677086,1.3677084 0 0 1 57.5,56.132291 1.3677086,1.3677084 0 0 1 58.867709,57.5 Z" />
    <path
       id="path10-2-1-1"
       style="fill:#f2f2f2;fill-opacity:1;fill-rule:evenodd;stroke:#000000;stroke-width:0.264583;stroke-opacity:1;image-rendering:auto"
       d="M 66.867709,57.5 A 1.3677086,1.3677084 0 0 1 65.500001,58.867708 1.3677086,1.3677084 0 0 1 64.132292,57.5 1.3677086,1.3677084 0 0 1 65.500001,56.132291 1.3677086,1.3677084 0 0 1 66.867709,57.5 Z" />
    <path
       id="path10-2-1-5"
       style="fill:#f2f2f2;fill-opacity:1;fill-rule:evenodd;stroke:#000000;stroke-width:0.264583;stroke-opacity:1;image-rendering:auto"
       d="M 74.867709,57.5 A 1.3677086,1.3677084 0 0 1 73.500001,58.867708 1.3677086,1.3677084 0 0 1 72.132291,57.5 1.3677086,1.3677084 0 0 1 73.500001,56.132291 1.3677086,1.3677084 0 0 1 74.867709,57.5 Z" />
    <path
       id="path10-2-1-17"
       style="fill:#f2f2f2;fill-opacity:1;fill-rule:evenodd;stroke:#000000;stroke-width:0.264583;stroke-opacity:1;image-rendering:auto"
       d="M 78.867709,65.5 A 1.3677086,1.3677084 0 0 1 77.500001,66.867708 1.3677086,1.3677084 0 0 1 76.132291,65.5 1.3677086,1.3677084 0 0 1 77.500001,64.132291 1.3677086,1.3677084 0 0 1 78.867709,65.5 Z" />
    <path
       id="path10-9-6-0"
       style="fill:#f2f2f2;fill-opacity:1;fill-rule:evenodd;stroke:#000000;stroke-width:0.264583;stroke-opacity:1;image-rendering:auto"
       d="M 22.867708,65.5 A 1.3677086,1.3677084 0 0 1 21.5,66.867708 1.3677086,1.3677084 0 0 1 20.132291,65.5 1.3677086,1.3677084 0 0 1 21.5,64.132291 1.3677086,1.3677084 0 0 1 22.867708,65.5 Z" />
    <path
       id="path10-1-9-7-8"
       style="fill:#f2f2f2;fill-opacity:1;fill-rule:evenodd;stroke:#000000;stroke-width:0.264583;stroke-opacity:1;image-rendering:auto"
       d="M 30.867709,65.5 A 1.3677086,1.3677084 0 0 1 29.5,66.867708 1.3677086,1.3677084 0 0 1 28.132291,65.5 1.3677086,1.3677084 0 0 1 29.5,64.132291 1.3677086,1.3677084 0 0 1 30.867709,65.5 Z" />
    <path
       id="path10-2-5-6-2"
       style="fill:#f2f2f2;fill-opacity:1;fill-rule:evenodd;stroke:#000000;stroke-width:0.264583;stroke-opacity:1;image-rendering:auto"
       d="M 38.867709,65.5 A 1.3677086,1.3677084 0 0 1 37.500001,66.867708 1.3677086,1.3677084 0 0 1 36.132292,65.5 1.3677086,1.3677084 0 0 1 37.500001,64.132291 1.3677086,1.3677084 0 0 1 38.867709,65.5 Z" />
    <path
       id="path10-7-7-6"
       style="fill:#f2f2f2;fill-opacity:1;fill-rule:evenodd;stroke:#000000;stroke-width:0.264583;stroke-opacity:1;image-rendering:auto"
       d="M 46.867708,65.5 A 1.3677086,1.3677084 0 0 1 45.5,66.867708 1.3677086,1.3677084 0 0 1 44.132291,65.5 1.3677086,1.3677084 0 0 1 45.5,64.132291 1.3677086,1.3677084 0 0 1 46.867708,65.5 Z" />
    <path
       id="path10-1-6-2-6"
       style="fill:#f2f2f2;fill-opacity:1;fill-rule:evenodd;stroke:#000000;stroke-width:0.264583;stroke-opacity:1;image-rendering:auto"
       d="M 54.867709,65.5 A 1.3677086,1.3677084 0 0 1 53.5,66.867708 1.3677086,1.3677084 0 0 1 52.132291,65.5 1.3677086,1.3677084 0 0 1 53.5,64.132291 1.3677086,1.3677084 0 0 1 54.867709,65.5 Z" />
    <path
       id="path10-2-1-1-5"
       style="fill:#f2f2f2;fill-opacity:1;fill-rule:evenodd;stroke:#000000;stroke-width:0.264583;stroke-opacity:1;image-rendering:auto"
       d="M 62.867709,65.5 A 1.3677086,1.3677084 0 0 1 61.500001,66.867708 1.3677086,1.3677084 0 0 1 60.132292,65.5 1.3677086,1.3677084 0 0 1 61.500001,64.132291 1.3677086,1.3677084 0 0 1 62.867709,65.5 Z" />
    <path
       id="path10-2-1-5-8"
       style="fill:#f2f2f2;fill-opacity:1;fill-rule:evenodd;stroke:#000000;stroke-width:0.264583;stroke-opacity:1;image-rendering:auto"
       d="M 70.867709,65.5 A 1.3677086,1.3677084 0 0 1 69.500001,66.867708 1.3677086,1.3677084 0 0 1 68.132291,65.5 1.3677086,1.3677084 0 0 1 69.500001,64.132291 1.3677086,1.3677084 0 0 1 70.867709,65.5 Z" />
    <path
       id="path10-2-1-17-4"
       style="fill:#f2f2f2;fill-opacity:1;fill-rule:evenodd;stroke:#000000;stroke-width:0.264583;stroke-opacity:1;image-rendering:auto"
       d="M 78.867709,73.5 A 1.3677086,1.3677084 0 0 1 77.500001,74.867708 1.3677086,1.3677084 0 0 1 76.132291,73.5 1.3677086,1.3677084 0 0 1 77.500001,72.132291 1.3677086,1.3677084 0 0 1 78.867709,73.5 Z" />
    <path
       id="path10-9-6-0-7"
       style="fill:#f2f2f2;fill-opacity:1;fill-rule:evenodd;stroke:#000000;stroke-width:0.264583;stroke-opacity:1;image-rendering:auto"
       d="M 22.867708,73.5 A 1.3677086,1.3677084 0 0 1 21.5,74.867708 1.3677086,1.3677084 0 0 1 20.132291,73.5 1.3677086,1.3677084 0 0 1 21.5,72.132291 1.3677086,1.3677084 0 0 1 22.867708,73.5 Z" />
    <path
       id="path10-1-9-7-8-2"
       style="fill:#f2f2f2;fill-opacity:1;fill-rule:evenodd;stroke:#000000;stroke-width:0.264583;stroke-opacity:1;image-rendering:auto"
       d="M 30.867709,73.5 A 1.3677086,1.3677084 0 0 1 29.5,74.867708 1.3677086,1.3677084 0 0 1 28.132291,73.5 1.3677086,1.3677084 0 0 1 29.5,72.132291 1.3677086,1.3677084 0 0 1 30.867709,73.5 Z" />
    <path
       id="path10-2-5-6-2-7"
       style="fill:#f2f2f2;fill-opacity:1;fill-rule:evenodd;stroke:#000000;stroke-width:0.264583;stroke-opacity:1;image-rendering:auto"
       d="M 38.867709,73.5 A 1.3677086,1.3677084 0 0 1 37.500001,74.867708 1.3677086,1.3677084 0 0 1 36.132292,73.5 1.3677086,1.3677084 0 0 1 37.500001,72.132291 1.3677086,1.3677084 0 0 1 38.867709,73.5 Z" />
    <path
       id="path10-7-7-6-4"
       style="fill:#f2f2f2;fill-opacity:1;fill-rule:evenodd;stroke:#000000;stroke-width:0.264583;stroke-opacity:1;image-rendering:auto"
       d="M 46.867708,73.5 A 1.3677086,1.3677084 0 0 1 45.5,74.867708 1.3677086,1.3677084 0 0 1 44.132291,73.5 1.3677086,1.3677084 0 0 1 45.5,72.132291 1.3677086,1.3677084 0 0 1 46.867708,73.5 Z" />
    <path
       id="path10-1-6-2-6-0"
       style="fill:#f2f2f2;fill-opacity:1;fill-rule:evenodd;stroke:#000000;stroke-width:0.264583;stroke-opacity:1;image-rendering:auto"
       d="M 54.867709,73.5 A 1.3677086,1.3677084 0 0 1 53.5,74.867708 1.3677086,1.3677084 0 0 1 52.132291,73.5 1.3677086,1.3677084 0 0 1 53.5,72.132291 1.3677086,1.3677084 0 0 1 54.867709,73.5 Z" />
    <path
       id="path10-2-1-1-5-7"
       style="fill:#f2f2f2;fill-opacity:1;fill-rule:evenodd;stroke:#000000;stroke-width:0.264583;stroke-opacity:1;image-rendering:auto"
       d="M 62.867709,73.5 A 1.3677086,1.3677084 0 0 1 61.500001,74.867708 1.3677086,1.3677084 0 0 1 60.132292,73.5 1.3677086,1.3677084 0 0 1 61.500001,72.132291 1.3677086,1.3677084 0 0 1 62.867709,73.5 Z" />
    <path
       id="path10-2-1-5-8-0"
       style="fill:#f2f2f2;fill-opacity:1;fill-rule:evenodd;stroke:#000000;stroke-width:0.264583;stroke-opacity:1;image-rendering:auto"
       d="M 70.867709,73.5 A 1.3677086,1.3677084 0 0 1 69.500001,74.867708 1.3677086,1.3677084 0 0 1 68.132291,73.5 1.3677086,1.3677084 0 0 1 69.500001,72.132291 1.3677086,1.3677084 0 0 1 70.867709,73.5 Z" />
    <path
       id="path10-9-6-5"
       style="fill:#f2f2f2;fill-opacity:1;fill-rule:evenodd;stroke:#000000;stroke-width:0.264583;stroke-opacity:1;image-rendering:auto"
       d="M 26.867708,81.5 A 1.3677086,1.3677084 0 0 1 25.5,82.867708 1.3677086,1.3677084 0 0 1 24.132291,81.5 1.3677086,1.3677084 0 0 1 25.5,80.132291 1.3677086,1.3677084 0 0 1 26.867708,81.5 Z" />
    <path
       id="path10-1-9-7-9"
       style="fill:#f2f2f2;fill-opacity:1;fill-rule:evenodd;stroke:#000000;stroke-width:0.264583;stroke-opacity:1;image-rendering:auto"
       d="M 34.867709,81.5 A 1.3677086,1.3677084 0 0 1 33.5,82.867708 1.3677086,1.3677084 0 0 1 32.132291,81.5 1.3677086,1.3677084 0 0 1 33.5,80.132291 1.3677086,1.3677084 0 0 1 34.867709,81.5 Z" />
    <path
       id="path10-2-5-6-0"
       style="fill:#f2f2f2;fill-opacity:1;fill-rule:evenodd;stroke:#000000;stroke-width:0.264583;stroke-opacity:1;image-rendering:auto"
       d="M 42.867709,81.5 A 1.3677086,1.3677084 0 0 1 41.500001,82.867708 1.3677086,1.3677084 0 0 1 40.132292,81.5 1.3677086,1.3677084 0 0 1 41.500001,80.132291 1.3677086,1.3677084 0 0 1 42.867709,81.5 Z" />
    <path
       id="path10-7-7-5"
       style="fill:#f2f2f2;fill-opacity:1;fill-rule:evenodd;stroke:#000000;stroke-width:0.264583;stroke-opacity:1;image-rendering:auto"
       d="M 50.867708,81.5 A 1.3677086,1.3677084 0 0 1 49.5,82.867708 1.3677086,1.3677084 0 0 1 48.132291,81.5 1.3677086,1.3677084 0 0 1 49.5,80.132291 1.3677086,1.3677084 0 0 1 50.867708,81.5 Z" />
    <path
       id="path10-1-6-2-3"
       style="fill:#f2f2f2;fill-opacity:1;fill-rule:evenodd;stroke:#000000;stroke-width:0.264583;stroke-opacity:1;image-rendering:auto"
       d="M 58.867709,81.5 A 1.3677086,1.3677084 0 0 1 57.5,82.867708 1.3677086,1.3677084 0 0 1 56.132291,81.5 1.3677086,1.3677084 0 0 1 57.5,80.132291 1.3677086,1.3677084 0 0 1 58.867709,81.5 Z" />
    <path
       id="path10-2-1-1-58"
       style="fill:#f2f2f2;fill-opacity:1;fill-rule:evenodd;stroke:#000000;stroke-width:0.264583;stroke-opacity:1;image-rendering:auto"
       d="M 66.867709,81.5 A 1.3677086,1.3677084 0 0 1 65.500001,82.867708 1.3677086,1.3677084 0 0 1 64.132292,81.5 1.3677086,1.3677084 0 0 1 65.500001,80.132291 1.3677086,1.3677084 0 0 1 66.867709,81.5 Z" />
    <path
       id="path10-2-1-5-0"
       style="fill:#f2f2f2;fill-opacity:1;fill-rule:evenodd;stroke:#000000;stroke-width:0.264583;stroke-opacity:1;image-rendering:auto"
       d="M 74.867709,81.5 A 1.3677086,1.3677084 0 0 1 73.500001,82.867708 1.3677086,1.3677084 0 0 1 72.132291,81.5 1.3677086,1.3677084 0 0 1 73.500001,80.132291 1.3677086,1.3677084 0 0 1 74.867709,81.5 Z" />
    <path
       id="path10-9-6-3"
       style="fill:#f2f2f2;fill-opacity:1;fill-rule:evenodd;stroke:#000000;stroke-width:0.264583;stroke-opacity:1;image-rendering:auto"
       d="M 26.867708,89.5 A 1.3677086,1.3677084 0 0 1 25.5,90.867708 1.3677086,1.3677084 0 0 1 24.132291,89.5 1.3677086,1.3677084 0 0 1 25.5,88.132291 1.3677086,1.3677084 0 0 1 26.867708,89.5 Z" />
    <path
       id="path10-1-9-7-89"
       style="fill:#f2f2f2;fill-opacity:1;fill-rule:evenodd;stroke:#000000;stroke-width:0.264583;stroke-opacity:1;image-rendering:auto"
       d="M 34.867709,89.5 A 1.3677086,1.3677084 0 0 1 33.5,90.867708 1.3677086,1.3677084 0 0 1 32.132291,89.5 1.3677086,1.3677084 0 0 1 33.5,88.132291 1.3677086,1.3677084 0 0 1 34.867709,89.5 Z" />
    <path
       id="path10-2-5-6-8"
       style="fill:#f2f2f2;fill-opacity:1;fill-rule:evenodd;stroke:#000000;stroke-width:0.264583;stroke-opacity:1;image-rendering:auto"
       d="M 42.867709,89.5 A 1.3677086,1.3677084 0 0 1 41.500001,90.867708 1.3677086,1.3677084 0 0 1 40.132292,89.5 1.3677086,1.3677084 0 0 1 41.500001,88.132291 1.3677086,1.3677084 0 0 1 42.867709,89.5 Z" />
    <path
       id="path10-7-7-1"
       style="fill:#f2f2f2;fill-opacity:1;fill-rule:evenodd;stroke:#000000;stroke-width:0.264583;stroke-opacity:1;image-rendering:auto"
       d="M 50.867708,89.5 A 1.3677086,1.3677084 0 0 1 49.5,90.867708 1.3677086,1.3677084 0 0 1 48.132291,89.5 1.3677086,1.3677084 0 0 1 49.5,88.132291 1.3677086,1.3677084 0 0 1 50.867708,89.5 Z" />
    <path
       id="path10-1-6-2-9"
       style="fill:#f2f2f2;fill-opacity:1;fill-rule:evenodd;stroke:#000000;stroke-width:0.264583;stroke-opacity:1;image-rendering:auto"
       d="M 58.867709,89.5 A 1.3677086,1.3677084 0 0 1 57.5,90.867708 1.3677086,1.3677084 0 0 1 56.132291,89.5 1.3677086,1.3677084 0 0 1 57.5,88.132291 1.3677086,1.3677084 0 0 1 58.867709,89.5 Z" />
    <path
       id="path10-2-1-1-7"
       style="fill:#f2f2f2;fill-opacity:1;fill-rule:evenodd;stroke:#000000;stroke-width:0.264583;stroke-opacity:1;image-rendering:auto"
       d="M 66.867709,89.5 A 1.3677086,1.3677084 0 0 1 65.500001,90.867708 1.3677086,1.3677084 0 0 1 64.132292,89.5 1.3677086,1.3677084 0 0 1 65.500001,88.132291 1.3677086,1.3677084 0 0 1 66.867709,89.5 Z" />
    <path
       id="path10-2-1-5-89"
       style="fill:#f2f2f2;fill-opacity:1;fill-rule:evenodd;stroke:#000000;stroke-width:0.264583;stroke-opacity:1;image-rendering:auto"
       d="M 74.867709,89.5 A 1.3677086,1.3677084 0 0 1 73.500001,90.867708 1.3677086,1.3677084 0 0 1 72.132291,89.5 1.3677086,1.3677084 0 0 1 73.500001,88.132291 1.3677086,1.3677084 0 0 1 74.867709,89.5 Z" />
    <path
       id="path10-9-6-3-9"
       style="fill:#f2f2f2;fill-opacity:1;fill-rule:evenodd;stroke:#000000;stroke-width:0.264583;stroke-opacity:1;image-rendering:auto"
       d="M 38.867708,97.5 A 1.3677086,1.3677084 0 0 1 37.5,98.867708 1.3677086,1.3677084 0 0 1 36.132291,97.5 1.3677086,1.3677084 0 0 1 37.5,96.132291 1.3677086,1.3677084 0 0 1 38.867708,97.5 Z" />
    <path
       id="path10-1-9-7-89-2"
       style="fill:#f2f2f2;fill-opacity:1;fill-rule:evenodd;stroke:#000000;stroke-width:0.264583;stroke-opacity:1;image-rendering:auto"
       d="M 46.867709,97.5 A 1.3677086,1.3677084 0 0 1 45.5,98.867708 1.3677086,1.3677084 0 0 1 44.132291,97.5 1.3677086,1.3677084 0 0 1 45.5,96.132291 1.3677086,1.3677084 0 0 1 46.867709,97.5 Z" />
    <path
       id="path10-2-5-6-8-3"
       style="fill:#f2f2f2;fill-opacity:1;fill-rule:evenodd;stroke:#000000;stroke-width:0.264583;stroke-opacity:1;image-rendering:auto"
       d="M 54.867709,97.5 A 1.3677086,1.3677084 0 0 1 53.500001,98.867708 1.3677086,1.3677084 0 0 1 52.132292,97.5 1.3677086,1.3677084 0 0 1 53.500001,96.132291 1.3677086,1.3677084 0 0 1 54.867709,97.5 Z" />
    <path
       id="path10-7-7-1-1"
       style="fill:#f2f2f2;fill-opacity:1;fill-rule:evenodd;stroke:#000000;stroke-width:0.264583;stroke-opacity:1;image-rendering:auto"
       d="M 62.867708,97.5 A 1.3677086,1.3677084 0 0 1 61.5,98.867708 1.3677086,1.3677084 0 0 1 60.132291,97.5 1.3677086,1.3677084 0 0 1 61.5,96.132291 1.3677086,1.3677084 0 0 1 62.867708,97.5 Z" />
  </g>
  <g
     inkscape:groupmode="layer"
     id="layer2"
     inkscape:label="Слой 2"
     transform="translate(-12,-32)">
    <text
       xml:space="preserve"
       style="font-style:normal;font-weight:normal;font-size:4px;line-height:0.15;font-family:sans-serif;fill:#000000;fill-opacity:1;stroke:none;stroke-width:0.264583"
       x="42.095619"
       y="46.034153"
       id="text1213"><tspan
         sodipodi:role="line"
         id="tspan1211"
         x="42.095619"
         y="46.034153"
         style="font-size:4px;stroke-width:0.264583">1</tspan></text>
    <text
       xml:space="preserve"
       style="font-style:normal;font-weight:normal;font-size:10.5833px;line-height:1.25;font-family:sans-serif;fill:#000000;fill-opacity:1;stroke:none;stroke-width:0.264583"
       x="12.561667"
       y="44.233109"
       id="text1217"><tspan
         sodipodi:role="line"
         id="tspan1215"
         x="12.561667"
         y="44.233109"
         style="stroke-width:0.264583" /></text>
    <text
       xml:space="preserve"
       style="font-style:normal;font-weight:normal;font-size:10.5833px;line-height:1.25;font-family:sans-serif;fill:#000000;fill-opacity:1;stroke:none;stroke-width:0.264583"
       x="19.243404"
       y="38.219543"
       id="text1230"><tspan
         sodipodi:role="line"
         id="tspan1228"
         x="19.243404"
         y="38.219543"
         style="stroke-width:0.264583" /></text>
    <text
       xml:space="preserve"
       style="font-size:4px;line-height:1.25;font-family:sans-serif;-inkscape-font-specification:'sans-serif, Normal';stroke-width:0.264583"
       x="53.181252"
       y="102.79063"
       id="text1270"><tspan
         sodipodi:role="line"
         id="tspan1268"
         x="53.181252"
         y="102.79063"
         style="stroke-width:0.264583">49</tspan></text>
    <text
       xml:space="preserve"
       style="font-style:normal;font-variant:normal;font-weight:normal;font-stretch:normal;font-size:4px;line-height:1.25;font-family:sans-serif;-inkscape-font-specification:'sans-serif, Normal';font-variant-ligatures:normal;font-variant-caps:normal;font-variant-numeric:normal;font-variant-east-asian:normal;stroke-width:0.264583"
       x="65.088364"
       y="86.210899"
       id="text79"><tspan
         sodipodi:role="line"
         id="tspan77"
         x="65.088364"
         y="86.210899"
         style="font-style:normal;font-variant:normal;font-weight:normal;font-stretch:normal;font-size:4px;font-family:sans-serif;-inkscape-font-specification:'sans-serif, Normal';font-variant-ligatures:normal;font-variant-caps:normal;font-variant-numeric:normal;font-variant-east-asian:normal;stroke-width:0.264583">38</tspan></text>
    <text
       xml:space="preserve"
       style="font-size:4px;line-height:1.25;font-family:sans-serif;-inkscape-font-specification:'sans-serif, Normal';stroke-width:0.264583"
       x="41.328102"
       y="94.068626"
       id="text87"><tspan
         sodipodi:role="line"
         id="tspan85"
         x="41.328102"
         y="94.068626"
         style="stroke-width:0.264583">42</tspan></text>
    <circle
       style="fill:#ffffff;stroke:#000000;stroke-width:0.264999"
       id="path93"
       cx="131.39392"
       cy="73.6838"
       r="19.8675" />
    <path
       id="path10-2-1-7"
       style="fill:#f2f2f2;fill-opacity:1;fill-rule:evenodd;stroke:#000000;stroke-width:0.264583;stroke-opacity:1;image-rendering:auto"
       d="M 122.86771,65.5 A 1.3677086,1.3677084 0 0 1 121.5,66.867708 1.3677086,1.3677084 0 0 1 120.13229,65.5 1.3677086,1.3677084 0 0 1 121.5,64.132291 1.3677086,1.3677084 0 0 1 122.86771,65.5 Z" />
    <path
       id="path10-2-1-7-8"
       style="fill:#f2f2f2;fill-opacity:1;fill-rule:evenodd;stroke:#000000;stroke-width:0.264583;stroke-opacity:1;image-rendering:auto"
       d="M 142.86771,65.5 A 1.3677086,1.3677084 0 0 1 141.5,66.867708 1.3677086,1.3677084 0 0 1 140.13229,65.5 1.3677086,1.3677084 0 0 1 141.5,64.132291 1.3677086,1.3677084 0 0 1 142.86771,65.5 Z" />
    <path
       id="path10-2-1-7-5"
       style="fill:#f2f2f2;fill-opacity:1;fill-rule:evenodd;stroke:#000000;stroke-width:0.264583;stroke-opacity:1;image-rendering:auto"
       d="M 122.86771,83.5 A 1.3677084,1.3677084 0 0 1 121.5,84.867708 1.3677084,1.3677084 0 0 1 120.13229,83.5 1.3677084,1.3677084 0 0 1 121.5,82.132291 1.3677084,1.3677084 0 0 1 122.86771,83.5 Z" />
    <path
       id="path10-2-1-7-8-1"
       style="fill:#f2f2f2;fill-opacity:1;fill-rule:evenodd;stroke:#000000;stroke-width:0.264583;stroke-opacity:1;image-rendering:auto"
       d="M 142.86771,83.5 A 1.3677084,1.3677084 0 0 1 141.5,84.867708 1.3677084,1.3677084 0 0 1 140.13229,83.5 1.3677084,1.3677084 0 0 1 141.5,82.132291 1.3677084,1.3677084 0 0 1 142.86771,83.5 Z" />
    <rect
       style="fill:#ffffff;stroke:#000000;stroke-width:0.264999"
       id="rect161"
       width="3.7350011"
       height="3.7350011"
       x="130.13249"
       y="53.821499"
       rx="1.448845"
       ry="0.32333514" />
    <text
       xml:space="preserve"
       style="font-size:5.26767px;line-height:1.25;font-family:sans-serif;-inkscape-font-specification:'sans-serif, Normal';stroke-width:0.264583"
       x="-59.998783"
       y="-142.92346"
       id="text169"
       transform="matrix(-0.73020768,0.68346553,-0.64399243,-0.76670432,0,0)"><tspan
         sodipodi:role="line"
         id="tspan167"
         x="-59.998783"
         y="-142.92346"
         style="stroke-width:0.264583">+ T -</tspan></text>
    <text
       xml:space="preserve"
       style="font-size:4px;line-height:1.25;font-family:sans-serif;-inkscape-font-specification:'sans-serif, Normal';stroke-width:0.264583"
       x="98.390152"
       y="61.234562"
       id="text173"><tspan
         sodipodi:role="line"
         id="tspan171"
         x="98.390152"
         y="61.234562"
         style="stroke-width:0.264583">Тангента</tspan></text>
    <text
       xml:space="preserve"
       style="font-size:4px;line-height:1.25;font-family:sans-serif;-inkscape-font-specification:'sans-serif, Normal';stroke-width:0.264583"
       x="102.78673"
       y="85.743172"
       id="text177"><tspan
         sodipodi:role="line"
         id="tspan175"
         x="102.78673"
         y="85.743172"
         style="stroke-width:0.264583">Корп</tspan></text>
    <text
       xml:space="preserve"
       style="font-size:4px;line-height:1.25;font-family:sans-serif;-inkscape-font-specification:'sans-serif, Normal';stroke-width:0.264583"
       x="150.12018"
       y="62.263554"
       id="text181"><tspan
         sodipodi:role="line"
         id="tspan179"
         x="150.12018"
         y="62.263554"
         style="stroke-width:0.264583">НОТ</tspan></text>
    <text
       xml:space="preserve"
       style="font-size:4px;line-height:1.25;font-family:sans-serif;-inkscape-font-specification:'sans-serif, Normal';stroke-width:0.264583"
       x="150.86853"
       y="85.836723"
       id="text185"><tspan
         sodipodi:role="line"
         id="tspan183"
         x="150.86853"
         y="85.836723"
         style="stroke-width:0.264583">Мкф.</tspan></text>
  </g>
</svg>
