<?xml version="1.0" encoding="UTF-8" standalone="no"?>
<svg
   xmlns:osb="http://www.openswatchbook.org/uri/2009/osb"
   xmlns:dc="http://purl.org/dc/elements/1.1/"
   xmlns:cc="http://creativecommons.org/ns#"
   xmlns:rdf="http://www.w3.org/1999/02/22-rdf-syntax-ns#"
   xmlns:svg="http://www.w3.org/2000/svg"
   xmlns="http://www.w3.org/2000/svg"
   xmlns:sodipodi="http://sodipodi.sourceforge.net/DTD/sodipodi-0.dtd"
   xmlns:inkscape="http://www.inkscape.org/namespaces/inkscape"
   width="210mm"
   height="297mm"
   viewBox="0 0 210 297"
   version="1.1"
   id="svg8"
   inkscape:version="1.0.2 (e86c870879, 2021-01-15, custom)"
   sodipodi:docname="b0202r862.svg">
  <defs
     id="defs2">
    <linearGradient
       id="linearGradient848"
       osb:paint="solid">
      <stop
         style="stop-color:#f2f2f2;stop-opacity:1;"
         offset="0"
         id="stop846" />
    </linearGradient>
  </defs>
  <sodipodi:namedview
     id="base"
     pagecolor="#ffffff"
     bordercolor="#666666"
     borderopacity="1.0"
     inkscape:pageopacity="0.0"
     inkscape:pageshadow="2"
     inkscape:zoom="1.4142136"
     inkscape:cx="322.29987"
     inkscape:cy="223.72449"
     inkscape:document-units="mm"
     inkscape:current-layer="layer2"
     inkscape:document-rotation="0"
     showgrid="false"
     inkscape:window-width="1710"
     inkscape:window-height="1030"
     inkscape:window-x="88"
     inkscape:window-y="1"
     inkscape:window-maximized="0" />
  <metadata
     id="metadata5">
    <rdf:RDF>
      <cc:Work
         rdf:about="">
        <dc:format>image/svg+xml</dc:format>
        <dc:type
           rdf:resource="http://purl.org/dc/dcmitype/StillImage" />
        <dc:title></dc:title>
      </cc:Work>
    </rdf:RDF>
  </metadata>
  <g
     inkscape:label="Слой 1"
     inkscape:groupmode="layer"
     id="layer1">
    <path
       id="path10"
       style="fill:#f2f2f2;fill-opacity:1;fill-rule:evenodd;stroke:#000000;stroke-width:0.264583;stroke-opacity:1;image-rendering:auto"
       d="M 42.867708,41.5 A 1.3677086,1.3677084 0 0 1 41.5,42.867708 1.3677086,1.3677084 0 0 1 40.132291,41.5 1.3677086,1.3677084 0 0 1 41.5,40.132291 1.3677086,1.3677084 0 0 1 42.867708,41.5 Z" />
    <rect
       style="display:none;opacity:0.278986;fill:#f2f2f2;stroke-width:0.264583"
       id="rect12"
       width="7.2162771"
       height="7.1494594"
       x="17.907059"
       y="5.1449385" />
    <path
       id="path10-1"
       style="fill:#f2f2f2;fill-opacity:1;fill-rule:evenodd;stroke:#000000;stroke-width:0.264583;stroke-opacity:1;image-rendering:auto"
       d="M 50.867708,41.5 A 1.3677086,1.3677084 0 0 1 49.5,42.867708 1.3677086,1.3677084 0 0 1 48.132291,41.5 1.3677086,1.3677084 0 0 1 49.5,40.132291 1.3677086,1.3677084 0 0 1 50.867708,41.5 Z" />
    <path
       id="path10-2"
       style="fill:#f2f2f2;fill-opacity:1;fill-rule:evenodd;stroke:#000000;stroke-width:0.264583;stroke-opacity:1;image-rendering:auto"
       d="M 58.867708,41.5 A 1.3677086,1.3677084 0 0 1 57.5,42.867708 1.3677086,1.3677084 0 0 1 56.132291,41.5 1.3677086,1.3677084 0 0 1 57.5,40.132291 1.3677086,1.3677084 0 0 1 58.867708,41.5 Z" />
    <path
       id="path10-9"
       style="fill:#f2f2f2;fill-opacity:1;fill-rule:evenodd;stroke:#000000;stroke-width:0.264583;stroke-opacity:1;image-rendering:auto"
       d="M 30.867708,49.5 A 1.3677086,1.3677084 0 0 1 29.5,50.867708 1.3677086,1.3677084 0 0 1 28.132291,49.5 1.3677086,1.3677084 0 0 1 29.5,48.132291 1.3677086,1.3677084 0 0 1 30.867708,49.5 Z" />
    <path
       id="path10-1-9"
       style="fill:#f2f2f2;fill-opacity:1;fill-rule:evenodd;stroke:#000000;stroke-width:0.264583;stroke-opacity:1;image-rendering:auto"
       d="M 38.867709,49.5 A 1.3677086,1.3677084 0 0 1 37.5,50.867708 1.3677086,1.3677084 0 0 1 36.132291,49.5 1.3677086,1.3677084 0 0 1 37.5,48.132291 1.3677086,1.3677084 0 0 1 38.867709,49.5 Z" />
    <path
       id="path10-2-5"
       style="fill:#f2f2f2;fill-opacity:1;fill-rule:evenodd;stroke:#000000;stroke-width:0.264583;stroke-opacity:1;image-rendering:auto"
       d="M 46.867709,49.5 A 1.3677086,1.3677084 0 0 1 45.500001,50.867708 1.3677086,1.3677084 0 0 1 44.132292,49.5 1.3677086,1.3677084 0 0 1 45.500001,48.132291 1.3677086,1.3677084 0 0 1 46.867709,49.5 Z" />
    <path
       id="path10-7"
       style="fill:#f2f2f2;fill-opacity:1;fill-rule:evenodd;stroke:#000000;stroke-width:0.264583;stroke-opacity:1;image-rendering:auto"
       d="M 54.867708,49.5 A 1.3677086,1.3677084 0 0 1 53.5,50.867708 1.3677086,1.3677084 0 0 1 52.132291,49.5 1.3677086,1.3677084 0 0 1 53.5,48.132291 1.3677086,1.3677084 0 0 1 54.867708,49.5 Z" />
    <path
       id="path10-1-6"
       style="fill:#f2f2f2;fill-opacity:1;fill-rule:evenodd;stroke:#000000;stroke-width:0.264583;stroke-opacity:1;image-rendering:auto"
       d="M 62.867709,49.5 A 1.3677086,1.3677084 0 0 1 61.5,50.867708 1.3677086,1.3677084 0 0 1 60.132291,49.5 1.3677086,1.3677084 0 0 1 61.5,48.132291 1.3677086,1.3677084 0 0 1 62.867709,49.5 Z" />
    <path
       id="path10-2-1"
       style="fill:#f2f2f2;fill-opacity:1;fill-rule:evenodd;stroke:#000000;stroke-width:0.264583;stroke-opacity:1;image-rendering:auto"
       d="M 70.867709,49.5 A 1.3677086,1.3677084 0 0 1 69.500001,50.867708 1.3677086,1.3677084 0 0 1 68.132292,49.5 1.3677086,1.3677084 0 0 1 69.500001,48.132291 1.3677086,1.3677084 0 0 1 70.867709,49.5 Z" />
    <path
       id="path10-9-6"
       style="fill:#f2f2f2;fill-opacity:1;fill-rule:evenodd;stroke:#000000;stroke-width:0.264583;stroke-opacity:1;image-rendering:auto"
       d="M 26.867708,57.5 A 1.3677086,1.3677084 0 0 1 25.5,58.867708 1.3677086,1.3677084 0 0 1 24.132291,57.5 1.3677086,1.3677084 0 0 1 25.5,56.132291 1.3677086,1.3677084 0 0 1 26.867708,57.5 Z" />
    <path
       id="path10-1-9-7"
       style="fill:#f2f2f2;fill-opacity:1;fill-rule:evenodd;stroke:#000000;stroke-width:0.264583;stroke-opacity:1;image-rendering:auto"
       d="M 34.867709,57.5 A 1.3677086,1.3677084 0 0 1 33.5,58.867708 1.3677086,1.3677084 0 0 1 32.132291,57.5 1.3677086,1.3677084 0 0 1 33.5,56.132291 1.3677086,1.3677084 0 0 1 34.867709,57.5 Z" />
    <path
       id="path10-2-5-6"
       style="fill:#f2f2f2;fill-opacity:1;fill-rule:evenodd;stroke:#000000;stroke-width:0.264583;stroke-opacity:1;image-rendering:auto"
       d="M 42.867709,57.5 A 1.3677086,1.3677084 0 0 1 41.500001,58.867708 1.3677086,1.3677084 0 0 1 40.132292,57.5 1.3677086,1.3677084 0 0 1 41.500001,56.132291 1.3677086,1.3677084 0 0 1 42.867709,57.5 Z" />
    <path
       id="path10-7-7"
       style="fill:#f2f2f2;fill-opacity:1;fill-rule:evenodd;stroke:#000000;stroke-width:0.264583;stroke-opacity:1;image-rendering:auto"
       d="M 50.867708,57.5 A 1.3677086,1.3677084 0 0 1 49.5,58.867708 1.3677086,1.3677084 0 0 1 48.132291,57.5 1.3677086,1.3677084 0 0 1 49.5,56.132291 1.3677086,1.3677084 0 0 1 50.867708,57.5 Z" />
    <path
       id="path10-1-6-2"
       style="fill:#f2f2f2;fill-opacity:1;fill-rule:evenodd;stroke:#000000;stroke-width:0.264583;stroke-opacity:1;image-rendering:auto"
       d="M 58.867709,57.5 A 1.3677086,1.3677084 0 0 1 57.5,58.867708 1.3677086,1.3677084 0 0 1 56.132291,57.5 1.3677086,1.3677084 0 0 1 57.5,56.132291 1.3677086,1.3677084 0 0 1 58.867709,57.5 Z" />
    <path
       id="path10-2-1-1"
       style="fill:#f2f2f2;fill-opacity:1;fill-rule:evenodd;stroke:#000000;stroke-width:0.264583;stroke-opacity:1;image-rendering:auto"
       d="M 66.867709,57.5 A 1.3677086,1.3677084 0 0 1 65.500001,58.867708 1.3677086,1.3677084 0 0 1 64.132292,57.5 1.3677086,1.3677084 0 0 1 65.500001,56.132291 1.3677086,1.3677084 0 0 1 66.867709,57.5 Z" />
    <path
       id="path10-2-1-5"
       style="fill:#f2f2f2;fill-opacity:1;fill-rule:evenodd;stroke:#000000;stroke-width:0.264583;stroke-opacity:1;image-rendering:auto"
       d="M 74.867709,57.5 A 1.3677086,1.3677084 0 0 1 73.500001,58.867708 1.3677086,1.3677084 0 0 1 72.132291,57.5 1.3677086,1.3677084 0 0 1 73.500001,56.132291 1.3677086,1.3677084 0 0 1 74.867709,57.5 Z" />
    <path
       id="path10-2-1-17"
       style="fill:#f2f2f2;fill-opacity:1;fill-rule:evenodd;stroke:#000000;stroke-width:0.264583;stroke-opacity:1;image-rendering:auto"
       d="M 78.867709,65.5 A 1.3677086,1.3677084 0 0 1 77.500001,66.867708 1.3677086,1.3677084 0 0 1 76.132291,65.5 1.3677086,1.3677084 0 0 1 77.500001,64.132291 1.3677086,1.3677084 0 0 1 78.867709,65.5 Z" />
    <path
       id="path10-9-6-0"
       style="fill:#f2f2f2;fill-opacity:1;fill-rule:evenodd;stroke:#000000;stroke-width:0.264583;stroke-opacity:1;image-rendering:auto"
       d="M 22.867708,65.5 A 1.3677086,1.3677084 0 0 1 21.5,66.867708 1.3677086,1.3677084 0 0 1 20.132291,65.5 1.3677086,1.3677084 0 0 1 21.5,64.132291 1.3677086,1.3677084 0 0 1 22.867708,65.5 Z" />
    <path
       id="path10-1-9-7-8"
       style="fill:#f2f2f2;fill-opacity:1;fill-rule:evenodd;stroke:#000000;stroke-width:0.264583;stroke-opacity:1;image-rendering:auto"
       d="M 30.867709,65.5 A 1.3677086,1.3677084 0 0 1 29.5,66.867708 1.3677086,1.3677084 0 0 1 28.132291,65.5 1.3677086,1.3677084 0 0 1 29.5,64.132291 1.3677086,1.3677084 0 0 1 30.867709,65.5 Z" />
    <path
       id="path10-2-5-6-2"
       style="fill:#f2f2f2;fill-opacity:1;fill-rule:evenodd;stroke:#000000;stroke-width:0.264583;stroke-opacity:1;image-rendering:auto"
       d="M 38.867709,65.5 A 1.3677086,1.3677084 0 0 1 37.500001,66.867708 1.3677086,1.3677084 0 0 1 36.132292,65.5 1.3677086,1.3677084 0 0 1 37.500001,64.132291 1.3677086,1.3677084 0 0 1 38.867709,65.5 Z" />
    <path
       id="path10-7-7-6"
       style="fill:#f2f2f2;fill-opacity:1;fill-rule:evenodd;stroke:#000000;stroke-width:0.264583;stroke-opacity:1;image-rendering:auto"
       d="M 46.867708,65.5 A 1.3677086,1.3677084 0 0 1 45.5,66.867708 1.3677086,1.3677084 0 0 1 44.132291,65.5 1.3677086,1.3677084 0 0 1 45.5,64.132291 1.3677086,1.3677084 0 0 1 46.867708,65.5 Z" />
    <path
       id="path10-1-6-2-6"
       style="fill:#f2f2f2;fill-opacity:1;fill-rule:evenodd;stroke:#000000;stroke-width:0.264583;stroke-opacity:1;image-rendering:auto"
       d="M 54.867709,65.5 A 1.3677086,1.3677084 0 0 1 53.5,66.867708 1.3677086,1.3677084 0 0 1 52.132291,65.5 1.3677086,1.3677084 0 0 1 53.5,64.132291 1.3677086,1.3677084 0 0 1 54.867709,65.5 Z" />
    <path
       id="path10-2-1-1-5"
       style="fill:#f2f2f2;fill-opacity:1;fill-rule:evenodd;stroke:#000000;stroke-width:0.264583;stroke-opacity:1;image-rendering:auto"
       d="M 62.867709,65.5 A 1.3677086,1.3677084 0 0 1 61.500001,66.867708 1.3677086,1.3677084 0 0 1 60.132292,65.5 1.3677086,1.3677084 0 0 1 61.500001,64.132291 1.3677086,1.3677084 0 0 1 62.867709,65.5 Z" />
    <path
       id="path10-2-1-5-8"
       style="fill:#f2f2f2;fill-opacity:1;fill-rule:evenodd;stroke:#000000;stroke-width:0.264583;stroke-opacity:1;image-rendering:auto"
       d="M 70.867709,65.5 A 1.3677086,1.3677084 0 0 1 69.500001,66.867708 1.3677086,1.3677084 0 0 1 68.132291,65.5 1.3677086,1.3677084 0 0 1 69.500001,64.132291 1.3677086,1.3677084 0 0 1 70.867709,65.5 Z" />
    <path
       id="path10-2-1-17-4"
       style="fill:#f2f2f2;fill-opacity:1;fill-rule:evenodd;stroke:#000000;stroke-width:0.264583;stroke-opacity:1;image-rendering:auto"
       d="M 78.867709,73.5 A 1.3677086,1.3677084 0 0 1 77.500001,74.867708 1.3677086,1.3677084 0 0 1 76.132291,73.5 1.3677086,1.3677084 0 0 1 77.500001,72.132291 1.3677086,1.3677084 0 0 1 78.867709,73.5 Z" />
    <path
       id="path10-9-6-0-7"
       style="fill:#f2f2f2;fill-opacity:1;fill-rule:evenodd;stroke:#000000;stroke-width:0.264583;stroke-opacity:1;image-rendering:auto"
       d="M 22.867708,73.5 A 1.3677086,1.3677084 0 0 1 21.5,74.867708 1.3677086,1.3677084 0 0 1 20.132291,73.5 1.3677086,1.3677084 0 0 1 21.5,72.132291 1.3677086,1.3677084 0 0 1 22.867708,73.5 Z" />
    <path
       id="path10-1-9-7-8-2"
       style="fill:#f2f2f2;fill-opacity:1;fill-rule:evenodd;stroke:#000000;stroke-width:0.264583;stroke-opacity:1;image-rendering:auto"
       d="M 30.867709,73.5 A 1.3677086,1.3677084 0 0 1 29.5,74.867708 1.3677086,1.3677084 0 0 1 28.132291,73.5 1.3677086,1.3677084 0 0 1 29.5,72.132291 1.3677086,1.3677084 0 0 1 30.867709,73.5 Z" />
    <path
       id="path10-2-5-6-2-7"
       style="fill:#f2f2f2;fill-opacity:1;fill-rule:evenodd;stroke:#000000;stroke-width:0.264583;stroke-opacity:1;image-rendering:auto"
       d="M 38.867709,73.5 A 1.3677086,1.3677084 0 0 1 37.500001,74.867708 1.3677086,1.3677084 0 0 1 36.132292,73.5 1.3677086,1.3677084 0 0 1 37.500001,72.132291 1.3677086,1.3677084 0 0 1 38.867709,73.5 Z" />
    <path
       id="path10-7-7-6-4"
       style="fill:#f2f2f2;fill-opacity:1;fill-rule:evenodd;stroke:#000000;stroke-width:0.264583;stroke-opacity:1;image-rendering:auto"
       d="M 46.867708,73.5 A 1.3677086,1.3677084 0 0 1 45.5,74.867708 1.3677086,1.3677084 0 0 1 44.132291,73.5 1.3677086,1.3677084 0 0 1 45.5,72.132291 1.3677086,1.3677084 0 0 1 46.867708,73.5 Z" />
    <path
       id="path10-1-6-2-6-0"
       style="fill:#f2f2f2;fill-opacity:1;fill-rule:evenodd;stroke:#000000;stroke-width:0.264583;stroke-opacity:1;image-rendering:auto"
       d="M 54.867709,73.5 A 1.3677086,1.3677084 0 0 1 53.5,74.867708 1.3677086,1.3677084 0 0 1 52.132291,73.5 1.3677086,1.3677084 0 0 1 53.5,72.132291 1.3677086,1.3677084 0 0 1 54.867709,73.5 Z" />
    <path
       id="path10-2-1-1-5-7"
       style="fill:#f2f2f2;fill-opacity:1;fill-rule:evenodd;stroke:#000000;stroke-width:0.264583;stroke-opacity:1;image-rendering:auto"
       d="M 62.867709,73.5 A 1.3677086,1.3677084 0 0 1 61.500001,74.867708 1.3677086,1.3677084 0 0 1 60.132292,73.5 1.3677086,1.3677084 0 0 1 61.500001,72.132291 1.3677086,1.3677084 0 0 1 62.867709,73.5 Z" />
    <path
       id="path10-2-1-5-8-0"
       style="fill:#f2f2f2;fill-opacity:1;fill-rule:evenodd;stroke:#000000;stroke-width:0.264583;stroke-opacity:1;image-rendering:auto"
       d="M 70.867709,73.5 A 1.3677086,1.3677084 0 0 1 69.500001,74.867708 1.3677086,1.3677084 0 0 1 68.132291,73.5 1.3677086,1.3677084 0 0 1 69.500001,72.132291 1.3677086,1.3677084 0 0 1 70.867709,73.5 Z" />
    <path
       id="path10-9-6-5"
       style="fill:#f2f2f2;fill-opacity:1;fill-rule:evenodd;stroke:#000000;stroke-width:0.264583;stroke-opacity:1;image-rendering:auto"
       d="M 26.867708,81.5 A 1.3677086,1.3677084 0 0 1 25.5,82.867708 1.3677086,1.3677084 0 0 1 24.132291,81.5 1.3677086,1.3677084 0 0 1 25.5,80.132291 1.3677086,1.3677084 0 0 1 26.867708,81.5 Z" />
    <path
       id="path10-1-9-7-9"
       style="fill:#f2f2f2;fill-opacity:1;fill-rule:evenodd;stroke:#000000;stroke-width:0.264583;stroke-opacity:1;image-rendering:auto"
       d="M 34.867709,81.5 A 1.3677086,1.3677084 0 0 1 33.5,82.867708 1.3677086,1.3677084 0 0 1 32.132291,81.5 1.3677086,1.3677084 0 0 1 33.5,80.132291 1.3677086,1.3677084 0 0 1 34.867709,81.5 Z" />
    <path
       id="path10-2-5-6-0"
       style="fill:#f2f2f2;fill-opacity:1;fill-rule:evenodd;stroke:#000000;stroke-width:0.264583;stroke-opacity:1;image-rendering:auto"
       d="M 42.867709,81.5 A 1.3677086,1.3677084 0 0 1 41.500001,82.867708 1.3677086,1.3677084 0 0 1 40.132292,81.5 1.3677086,1.3677084 0 0 1 41.500001,80.132291 1.3677086,1.3677084 0 0 1 42.867709,81.5 Z" />
    <path
       id="path10-7-7-5"
       style="fill:#f2f2f2;fill-opacity:1;fill-rule:evenodd;stroke:#000000;stroke-width:0.264583;stroke-opacity:1;image-rendering:auto"
       d="M 50.867708,81.5 A 1.3677086,1.3677084 0 0 1 49.5,82.867708 1.3677086,1.3677084 0 0 1 48.132291,81.5 1.3677086,1.3677084 0 0 1 49.5,80.132291 1.3677086,1.3677084 0 0 1 50.867708,81.5 Z" />
    <path
       id="path10-1-6-2-3"
       style="fill:#f2f2f2;fill-opacity:1;fill-rule:evenodd;stroke:#000000;stroke-width:0.264583;stroke-opacity:1;image-rendering:auto"
       d="M 58.867709,81.5 A 1.3677086,1.3677084 0 0 1 57.5,82.867708 1.3677086,1.3677084 0 0 1 56.132291,81.5 1.3677086,1.3677084 0 0 1 57.5,80.132291 1.3677086,1.3677084 0 0 1 58.867709,81.5 Z" />
    <path
       id="path10-2-1-1-58"
       style="fill:#f2f2f2;fill-opacity:1;fill-rule:evenodd;stroke:#000000;stroke-width:0.264583;stroke-opacity:1;image-rendering:auto"
       d="M 66.867709,81.5 A 1.3677086,1.3677084 0 0 1 65.500001,82.867708 1.3677086,1.3677084 0 0 1 64.132292,81.5 1.3677086,1.3677084 0 0 1 65.500001,80.132291 1.3677086,1.3677084 0 0 1 66.867709,81.5 Z" />
    <path
       id="path10-2-1-5-0"
       style="fill:#f2f2f2;fill-opacity:1;fill-rule:evenodd;stroke:#000000;stroke-width:0.264583;stroke-opacity:1;image-rendering:auto"
       d="M 74.867709,81.5 A 1.3677086,1.3677084 0 0 1 73.500001,82.867708 1.3677086,1.3677084 0 0 1 72.132291,81.5 1.3677086,1.3677084 0 0 1 73.500001,80.132291 1.3677086,1.3677084 0 0 1 74.867709,81.5 Z" />
    <path
       id="path10-9-6-3"
       style="fill:#f2f2f2;fill-opacity:1;fill-rule:evenodd;stroke:#000000;stroke-width:0.264583;stroke-opacity:1;image-rendering:auto"
       d="M 26.867708,89.5 A 1.3677086,1.3677084 0 0 1 25.5,90.867708 1.3677086,1.3677084 0 0 1 24.132291,89.5 1.3677086,1.3677084 0 0 1 25.5,88.132291 1.3677086,1.3677084 0 0 1 26.867708,89.5 Z" />
    <path
       id="path10-1-9-7-89"
       style="fill:#f2f2f2;fill-opacity:1;fill-rule:evenodd;stroke:#000000;stroke-width:0.264583;stroke-opacity:1;image-rendering:auto"
       d="M 34.867709,89.5 A 1.3677086,1.3677084 0 0 1 33.5,90.867708 1.3677086,1.3677084 0 0 1 32.132291,89.5 1.3677086,1.3677084 0 0 1 33.5,88.132291 1.3677086,1.3677084 0 0 1 34.867709,89.5 Z" />
    <path
       id="path10-2-5-6-8"
       style="fill:#f2f2f2;fill-opacity:1;fill-rule:evenodd;stroke:#000000;stroke-width:0.264583;stroke-opacity:1;image-rendering:auto"
       d="M 42.867709,89.5 A 1.3677086,1.3677084 0 0 1 41.500001,90.867708 1.3677086,1.3677084 0 0 1 40.132292,89.5 1.3677086,1.3677084 0 0 1 41.500001,88.132291 1.3677086,1.3677084 0 0 1 42.867709,89.5 Z" />
    <path
       id="path10-7-7-1"
       style="fill:#f2f2f2;fill-opacity:1;fill-rule:evenodd;stroke:#000000;stroke-width:0.264583;stroke-opacity:1;image-rendering:auto"
       d="M 50.867708,89.5 A 1.3677086,1.3677084 0 0 1 49.5,90.867708 1.3677086,1.3677084 0 0 1 48.132291,89.5 1.3677086,1.3677084 0 0 1 49.5,88.132291 1.3677086,1.3677084 0 0 1 50.867708,89.5 Z" />
    <path
       id="path10-1-6-2-9"
       style="fill:#f2f2f2;fill-opacity:1;fill-rule:evenodd;stroke:#000000;stroke-width:0.264583;stroke-opacity:1;image-rendering:auto"
       d="M 58.867709,89.5 A 1.3677086,1.3677084 0 0 1 57.5,90.867708 1.3677086,1.3677084 0 0 1 56.132291,89.5 1.3677086,1.3677084 0 0 1 57.5,88.132291 1.3677086,1.3677084 0 0 1 58.867709,89.5 Z" />
    <path
       id="path10-2-1-1-7"
       style="fill:#f2f2f2;fill-opacity:1;fill-rule:evenodd;stroke:#000000;stroke-width:0.264583;stroke-opacity:1;image-rendering:auto"
       d="M 66.867709,89.5 A 1.3677086,1.3677084 0 0 1 65.500001,90.867708 1.3677086,1.3677084 0 0 1 64.132292,89.5 1.3677086,1.3677084 0 0 1 65.500001,88.132291 1.3677086,1.3677084 0 0 1 66.867709,89.5 Z" />
    <path
       id="path10-2-1-5-89"
       style="fill:#f2f2f2;fill-opacity:1;fill-rule:evenodd;stroke:#000000;stroke-width:0.264583;stroke-opacity:1;image-rendering:auto"
       d="M 74.867709,89.5 A 1.3677086,1.3677084 0 0 1 73.500001,90.867708 1.3677086,1.3677084 0 0 1 72.132291,89.5 1.3677086,1.3677084 0 0 1 73.500001,88.132291 1.3677086,1.3677084 0 0 1 74.867709,89.5 Z" />
    <path
       id="path10-9-6-3-9"
       style="fill:#f2f2f2;fill-opacity:1;fill-rule:evenodd;stroke:#000000;stroke-width:0.264583;stroke-opacity:1;image-rendering:auto"
       d="M 38.867708,97.5 A 1.3677086,1.3677084 0 0 1 37.5,98.867708 1.3677086,1.3677084 0 0 1 36.132291,97.5 1.3677086,1.3677084 0 0 1 37.5,96.132291 1.3677086,1.3677084 0 0 1 38.867708,97.5 Z" />
    <path
       id="path10-1-9-7-89-2"
       style="fill:#f2f2f2;fill-opacity:1;fill-rule:evenodd;stroke:#000000;stroke-width:0.264583;stroke-opacity:1;image-rendering:auto"
       d="M 46.867709,97.5 A 1.3677086,1.3677084 0 0 1 45.5,98.867708 1.3677086,1.3677084 0 0 1 44.132291,97.5 1.3677086,1.3677084 0 0 1 45.5,96.132291 1.3677086,1.3677084 0 0 1 46.867709,97.5 Z" />
    <path
       id="path10-2-5-6-8-3"
       style="fill:#f2f2f2;fill-opacity:1;fill-rule:evenodd;stroke:#000000;stroke-width:0.264583;stroke-opacity:1;image-rendering:auto"
       d="M 54.867709,97.5 A 1.3677086,1.3677084 0 0 1 53.500001,98.867708 1.3677086,1.3677084 0 0 1 52.132292,97.5 1.3677086,1.3677084 0 0 1 53.500001,96.132291 1.3677086,1.3677084 0 0 1 54.867709,97.5 Z" />
    <path
       id="path10-7-7-1-1"
       style="fill:#f2f2f2;fill-opacity:1;fill-rule:evenodd;stroke:#000000;stroke-width:0.264583;stroke-opacity:1;image-rendering:auto"
       d="M 62.867708,97.5 A 1.3677086,1.3677084 0 0 1 61.5,98.867708 1.3677086,1.3677084 0 0 1 60.132291,97.5 1.3677086,1.3677084 0 0 1 61.5,96.132291 1.3677086,1.3677084 0 0 1 62.867708,97.5 Z" />
  </g>
  <g
     inkscape:groupmode="layer"
     id="layer2"
     inkscape:label="Слой 2">
    <text
       xml:space="preserve"
       style="font-style:normal;font-weight:normal;font-size:4px;line-height:0.15;font-family:sans-serif;fill:#000000;fill-opacity:1;stroke:none;stroke-width:0.264583"
       x="42.095619"
       y="46.034153"
       id="text1213"><tspan
         sodipodi:role="line"
         id="tspan1211"
         x="42.095619"
         y="46.034153"
         style="font-size:4px;stroke-width:0.264583">1</tspan></text>
    <text
       xml:space="preserve"
       style="font-style:normal;font-weight:normal;font-size:10.5833px;line-height:1.25;font-family:sans-serif;fill:#000000;fill-opacity:1;stroke:none;stroke-width:0.264583"
       x="12.561667"
       y="44.233109"
       id="text1217"><tspan
         sodipodi:role="line"
         id="tspan1215"
         x="12.561667"
         y="44.233109"
         style="stroke-width:0.264583" /></text>
    <text
       xml:space="preserve"
       style="font-style:normal;font-weight:normal;font-size:10.5833px;line-height:1.25;font-family:sans-serif;fill:#000000;fill-opacity:1;stroke:none;stroke-width:0.264583"
       x="19.243404"
       y="38.219543"
       id="text1230"><tspan
         sodipodi:role="line"
         id="tspan1228"
         x="19.243404"
         y="38.219543"
         style="stroke-width:0.264583" /></text>
    <text
       xml:space="preserve"
       style="font-style:normal;font-weight:normal;font-size:4px;line-height:1.25;font-family:sans-serif;fill:#000000;fill-opacity:1;stroke:none;stroke-width:0.264583"
       x="28.458179"
       y="70.417458"
       id="text1234"><tspan
         sodipodi:role="line"
         id="tspan1232"
         x="28.458179"
         y="70.417458"
         style="font-size:4px;stroke-width:0.264583">18</tspan></text>
    <text
       xml:space="preserve"
       style="font-size:4px;line-height:1.25;font-family:sans-serif;-inkscape-font-specification:'sans-serif, Normal';stroke-width:0.264583"
       x="37.570835"
       y="70.114586"
       id="text1262"><tspan
         sodipodi:role="line"
         id="tspan1260"
         x="37.570835"
         y="70.114586"
         style="stroke-width:0.264583">19</tspan></text>
    <text
       xml:space="preserve"
       style="font-size:4px;line-height:1.25;font-family:sans-serif;-inkscape-font-specification:'sans-serif, Normal';stroke-width:0.264583"
       x="37.967709"
       y="78.448959"
       id="text1266"><tspan
         sodipodi:role="line"
         id="tspan1264"
         x="37.967709"
         y="78.448959"
         style="stroke-width:0.264583">27</tspan></text>
    <text
       xml:space="preserve"
       style="font-size:4px;line-height:1.25;font-family:sans-serif;-inkscape-font-specification:'sans-serif, Normal';stroke-width:0.264583"
       x="53.181252"
       y="102.79063"
       id="text1270"><tspan
         sodipodi:role="line"
         id="tspan1268"
         x="53.181252"
         y="102.79063"
         style="stroke-width:0.264583">49</tspan></text>
    <text
       xml:space="preserve"
       style="font-size:4px;line-height:1.25;font-family:sans-serif;-inkscape-font-specification:'sans-serif, Normal';stroke-width:0.264583"
       x="62.177086"
       y="102.39375"
       id="text1274"><tspan
         sodipodi:role="line"
         id="tspan1272"
         x="62.177086"
         y="102.39375"
         style="stroke-width:0.264583">50</tspan></text>
  </g>
</svg>
